<?xml version="1.0" encoding="utf-8"?>
<!-- Generator: Adobe Illustrator 24.1.2, SVG Export Plug-In . SVG Version: 6.00 Build 0)  -->
<svg version="1.1" id="Capa_1" xmlns="http://www.w3.org/2000/svg" xmlns:xlink="http://www.w3.org/1999/xlink" x="0px" y="0px"
	 viewBox="0 0 453.1 453.1" style="enable-background:new 0 0 453.1 453.1;" xml:space="preserve">
<style type="text/css">
	.st0{fill:#00AA8A;}
</style>
<g>
	<g>
		<path class="st0" d="M182,102.4c-17.3,0-31.3,14-31.3,31.3c0,17.3,14,31.2,31.3,31.3c17.3,0,31.3-14,31.3-31.3
			S199.2,102.4,182,102.4z M182,148.9c-8.4,0-15.3-6.8-15.3-15.3s6.8-15.3,15.3-15.3s15.3,6.8,15.3,15.3S190.4,148.9,182,148.9z"/>
	</g>
</g>
<g>
	<g>
		<path class="st0" d="M271.1,102.4c-17.3,0-31.3,14-31.3,31.3c0,17.3,14,31.2,31.3,31.3c17.3,0,31.3-14,31.3-31.3
			S288.4,102.4,271.1,102.4z M271.1,148.9c-8.4,0-15.3-6.8-15.3-15.3s6.8-15.3,15.3-15.3s15.3,6.8,15.3,15.3
			S279.5,148.9,271.1,148.9z"/>
	</g>
</g>
<g>
	<g>
		<path class="st0" d="M366.5,138.4c-3.3-18.7-18.4-33.1-37.3-35.6c-5.2-19-20.1-35.2-49.8-35.2h-44.9V50.9
			c13.7-4.4,21.2-19.1,16.8-32.8c-4.4-13.7-19.1-21.2-32.8-16.8s-21.2,19.1-16.8,32.8c2.6,8,8.8,14.2,16.8,16.8v16h-45
			c-21,0-43.3,9.7-50,35.2c-23.9,3.2-40.7,25.1-37.5,49c2.5,18.9,16.9,33.9,35.7,37.2v0.7c2.5,34.2,27.9,46.6,51.8,46.6h105.8
			c35.7,0,50-23.2,51.8-46.6C354.9,184.8,370.7,162.1,366.5,138.4z M121.5,172.4c-14.6-4.4-22.8-19.7-18.5-34.3
			c2.7-8.9,9.6-15.8,18.5-18.5V172.4z M216.4,26.9c-0.2-5.6,4.1-10.3,9.7-10.5s10.3,4.1,10.5,9.7c0.2,5.6-4.1,10.3-9.7,10.5
			c-0.1,0-0.2,0-0.3,0C221.1,36.6,216.6,32.3,216.4,26.9z M315.5,183.7c0,13.5-4.7,36.1-36.1,36.1H173.6c-13.5,0-36.1-4.7-36.1-36.1
			v-64c0-31.4,22.6-36.1,36.1-36.1h105.8c31.4,0,36.1,22.6,36.1,36.1V183.7z M350,154c-2.7,8.9-9.6,15.8-18.5,18.5v-52.7
			C346.1,124.1,354.4,139.4,350,154z"/>
	</g>
</g>
<g>
	<g>
		<path class="st0" d="M271.1,185.8H182c-4.4,0-8,3.6-8,8s3.6,8,8,8h89.1c4.4,0,8-3.6,8-8S275.5,185.8,271.1,185.8z"/>
	</g>
</g>
<g>
	<g>
		<path class="st0" d="M253.9,307.5c-1.5-1.7-3.7-2.7-6-2.7h-0.1h-28.2l33.2-27.1c3.4-2.9,3.9-7.9,1-11.3s-7.9-3.9-11.3-1
			l-50.4,41.5c-3.4,2.8-4,7.8-1.2,11.2c1.5,1.9,3.8,3,6.3,3h29.4l-34.6,30.4c-2.9,3.4-2.4,8.4,0.9,11.3c2.8,2.3,6.7,2.5,9.7,0.5
			l50.6-44.5C256.5,315.9,256.8,310.9,253.9,307.5z"/>
	</g>
</g>
<g>
	<g>
		<path class="st0" d="M138.5,390.2L138.5,390.2c-11.8,0-21.4,9.6-21.4,21.4s9.6,21.4,21.4,21.4s21.4-9.6,21.4-21.4
			S150.3,390.2,138.5,390.2z M138.5,416.9c-3,0-5.4-2.4-5.4-5.4s2.4-5.4,5.4-5.4s5.4,2.4,5.4,5.4S141.5,416.9,138.5,416.9z"/>
	</g>
</g>
<g>
	<g>
		<path class="st0" d="M226.5,390.2L226.5,390.2c-11.8,0-21.4,9.6-21.4,21.4s9.6,21.4,21.4,21.4s21.4-9.6,21.4-21.4
			S238.3,390.2,226.5,390.2z M231.9,411.5c0,3-2.4,5.4-5.4,5.4s-5.4-2.4-5.4-5.4s2.4-5.4,5.4-5.4
			C229.5,406.2,231.9,408.6,231.9,411.5L231.9,411.5z"/>
	</g>
</g>
<g>
	<g>
		<path class="st0" d="M314.5,390.2c-11.8,0-21.4,9.5-21.4,21.3c0,0,0,0.1,0,0.1c0,11.8,9.6,21.4,21.4,21.4s21.4-9.6,21.4-21.4
			C335.8,399.8,326.3,390.2,314.5,390.2z M314.4,416.9c-3,0-5.4-2.4-5.4-5.4s2.4-5.4,5.4-5.4l0,0c3,0,5.4,2.4,5.4,5.4
			S317.4,416.9,314.4,416.9z"/>
	</g>
</g>
<g>
	<g>
		<path class="st0" d="M403.8,297.9L403.8,297.9l-6.5-11.7c-26.1-45.8-78.4-43.3-82.8-43.3h-176c-4.7,0-57-2.9-83.2,43l-6.4,11.6
			c-14.6,2.6-25.2,15.3-25,30.2c0,4.4,3.6,8,8,8s8-3.6,8-8c0-7.9,6.4-14.4,14.4-14.4s14.4,6.4,14.4,14.4c0,4.4,3.6,8,8,8s8-3.6,8-8
			c0-12-7.1-22.9-18.1-27.8l3.2-5.8c11.1-18.8,30.3-31.4,51.9-34v109.1h-0.4c-23.1,1-41.1,20.6-40,43.7c0.9,21.7,18.3,39.1,40,40
			H332c23.1,1,42.7-16.9,43.7-40c1-23.1-16.9-42.7-40-43.7c-1.2-0.1-2.4-0.1-3.7,0h-0.4V260.2c21.6,2.6,40.8,15.1,51.9,33.8l3.3,5.9
			c-11,4.8-18.2,15.7-18.2,27.8c0,4.4,3.6,8,8,8s8-3.6,8-8c0-7.9,6.4-14.4,14.4-14.4s14.4,6.4,14.4,14.4c0,4.4,3.6,8,8,8s8-3.6,8-8
			C429.2,312.9,418.4,300.3,403.8,297.9z M137.9,258.9h177.7v110.4H137.9V258.9z M332,385.6c14.3-0.8,26.5,10.1,27.3,24.4
			s-10.1,26.5-24.4,27.3c-1,0.1-1.9,0.1-2.9,0H121.1c-14.3-0.8-25.2-13-24.4-27.3c0.7-13.2,11.3-23.7,24.4-24.4H332z"/>
	</g>
</g>
</svg>
